<?xml version="1.0" encoding="UTF-8"?>
<svg version="1.1" xmlns="http://www.w3.org/2000/svg" width="180" height="200">
<path d="M0 0 C59.4 0 118.8 0 180 0 C180 66 180 132 180 200 C120.6 200 61.2 200 0 200 C0 134 0 68 0 0 Z " fill="#10216C" transform="translate(0,0)"/>
<path d="M0 0 C4.02446889 1.34148963 5.27516512 3.94094107 7.4375 7.375 C7.83783447 8.0055127 8.23816895 8.63602539 8.65063477 9.28564453 C11.93428961 14.60587761 14.31269559 19.96766818 16 26 C16.53173828 27.87558594 16.53173828 27.87558594 17.07421875 29.7890625 C20.95892561 45.681892 17.27128576 63.15651032 9.6328125 77.3203125 C7.07596124 81.51648466 4.23143837 85.30283326 1 89 C0.49082031 89.60328125 -0.01835937 90.2065625 -0.54296875 90.828125 C-10.87226046 102.15208925 -27.03349109 109.31536284 -42.22265625 110.54296875 C-55.27682903 111.11080136 -68.86397114 109.30266508 -80 102 C-77.3333581 100.66667905 -75.83319697 101.32897967 -73 102 C-72.67 100.68 -72.34 99.36 -72 98 C-72.70511719 97.88914062 -73.41023438 97.77828125 -74.13671875 97.6640625 C-84.17534744 95.33586758 -91.89007126 89.10992874 -99 82 C-100.41885983 79.71118232 -101.6915737 77.35516735 -103 75 C-102.14535156 74.95101562 -101.29070312 74.90203125 -100.41015625 74.8515625 C-98.75306641 74.73941406 -98.75306641 74.73941406 -97.0625 74.625 C-95.40927734 74.52058594 -95.40927734 74.52058594 -93.72265625 74.4140625 C-92.82417969 74.27742188 -91.92570312 74.14078125 -91 74 C-90.505 73.01 -90.505 73.01 -90 72 C-89.34 72.33 -88.68 72.66 -88 73 C-88.495 73.99 -88.495 73.99 -89 75 C-74.81 74.67 -60.62 74.34 -46 74 C-45.67 73.34 -45.34 72.68 -45 72 C-44.01 71.67 -43.02 71.34 -42 71 C-42.5775 70.855625 -43.155 70.71125 -43.75 70.5625 C-45.83333333 70.04166667 -47.91666667 69.52083333 -50 69 C-49.67 68.67 -49.34 68.34 -49 68 C-49.556875 67.99742188 -50.11375 67.99484375 -50.6875 67.9921875 C-57.27226152 67.65850026 -61.39694046 65.73813803 -66 61 C-70.38851348 55.56071569 -70.44171587 49.83275114 -70.43359375 43.05078125 C-69.7691317 38.37560235 -67.9431218 35.82810695 -64.4375 32.75 C-61.05960987 30.32484811 -59.24287518 29.82331529 -55.125 29.75 C-53.82949219 29.71132812 -53.82949219 29.71132812 -52.5078125 29.671875 C-49.47697497 30.06843318 -48.14053699 30.83480245 -46 33 C-45.75 36.6875 -45.75 36.6875 -46 40 C-49.25 40.8125 -49.25 40.8125 -53 41 C-55.4375 38.6875 -55.4375 38.6875 -57 36 C-57 35.34 -57 34.68 -57 34 C-58.65 34 -60.3 34 -62 34 C-62.60053579 42.10723312 -60.60920529 48.54456597 -55.6875 55.0625 C-52.36645112 57.45674454 -50.07111629 57.92460896 -46 58 C-45.01 57.34 -44.02 56.68 -43 56 C-43.33 55.01 -43.66 54.02 -44 53 C-43.52779799 50.47965799 -42.98154675 48.09166347 -42.3125 45.625 C-42.15072266 44.965 -41.98894531 44.305 -41.82226562 43.625 C-40.3303127 38.01480997 -38.12722772 34.43464195 -33.3125 31.1875 C-29.07917107 29.66989152 -25.44194796 29.12791114 -21 30 C-17.875 32.1875 -17.875 32.1875 -16 35 C-16.1875 37.8125 -16.1875 37.8125 -17 40 C-20.465 40.495 -20.465 40.495 -24 41 C-24.556875 40.030625 -25.11375 39.06125 -25.6875 38.0625 C-27.68035805 34.81008721 -27.68035805 34.81008721 -30.75 34.125 C-31.4925 34.08375 -32.235 34.0425 -33 34 C-33.55655357 41.51347317 -32.1327973 47.93132908 -27.45703125 54.00390625 C-25.07948574 56.34880811 -23.22513365 57.81983329 -19.875 58.3125 C-17.4337687 58.25610733 -17.4337687 58.25610733 -14 57 C-12.08255407 54.55690423 -12.08255407 54.55690423 -11 52 C-10.34 52 -9.68 52 -9 52 C-9.08378906 52.59167969 -9.16757813 53.18335938 -9.25390625 53.79296875 C-9.80889424 58.09939457 -10.23226652 61.75552644 -9 66 C-8.67 65.67 -8.34 65.34 -8 65 C-6.67405895 64.63837971 -5.34061543 64.30271961 -4 64 C-0.59345349 50.70615997 -1.76159298 33.98362325 -8.671875 22.1328125 C-9.74541492 20.4338617 -10.85819408 18.75850926 -12.0234375 17.12109375 C-13 15 -13 15 -12.515625 13.08203125 C-10.40964042 10.18901635 -7.93896765 7.72936973 -5.375 5.25 C-4.859375 4.74339844 -4.34375 4.23679687 -3.8125 3.71484375 C-2.54616661 2.47196098 -1.2736856 1.23534724 0 0 Z " fill="#152367" transform="translate(149,52)"/>
<path d="M0 0 C-3.42090589 1.14030196 -3.88846292 0.8705414 -7.078125 -0.41015625 C-12.04958084 -2.17146629 -16.50600818 -2.5008283 -21.75 -2.4375 C-22.62108398 -2.43137695 -23.49216797 -2.42525391 -24.38964844 -2.41894531 C-35.92771866 -2.14169039 -49.67801335 1.42583193 -58 10 C-58.88593998 13.13863704 -58.88593998 13.13863704 -59 16 C-58.46632812 15.62488281 -57.93265625 15.24976562 -57.3828125 14.86328125 C-49.37195633 9.36101499 -41.58140015 4.9517667 -32 3 C-33.33333333 4.33333333 -34.66666667 5.66666667 -36 7 C-35.11248047 6.54947266 -35.11248047 6.54947266 -34.20703125 6.08984375 C-26.75744082 2.50480431 -26.75744082 2.50480431 -22 4 C-19.76832815 3.63143136 -19.76832815 3.63143136 -18 3 C-18 2.67 -18 2.34 -18 2 C-7.02920975 2.37830311 2.8770822 6.71020197 11 14 C11.886875 14.12375 12.77375 14.2475 13.6875 14.375 C14.8321875 14.684375 14.8321875 14.684375 16 15 C17.625 18.3125 17.625 18.3125 19 22 C19.98244845 23.34631825 20.97676564 24.68441297 22 26 C22 26.66 22 27.32 22 28 C20.70263916 27.99476318 19.40527832 27.98952637 18.06860352 27.98413086 C13.27352585 27.96608531 8.4784512 27.95456963 3.68334961 27.94506836 C1.60456844 27.94002712 -0.47420916 27.93319426 -2.55297852 27.92456055 C-5.53402586 27.91248578 -8.51502649 27.90676976 -11.49609375 27.90234375 C-12.43150497 27.89718246 -13.3669162 27.89202118 -14.33067322 27.88670349 C-15.19149002 27.88662796 -16.05230682 27.88655243 -16.93920898 27.88647461 C-17.70087875 27.884254 -18.46254852 27.88203339 -19.24729919 27.87974548 C-21.02810605 27.80909045 -21.02810605 27.80909045 -22 29 C-24.35313555 29.07271741 -26.70833668 29.08370868 -29.0625 29.0625 C-30.99802734 29.04896484 -30.99802734 29.04896484 -32.97265625 29.03515625 C-33.97167969 29.02355469 -34.97070312 29.01195312 -36 29 C-36.33 28.34 -36.66 27.68 -37 27 C-39.31243792 26.97314588 -41.6249627 26.95367159 -43.9375 26.9375 C-45.22527344 26.92589844 -46.51304688 26.91429687 -47.83984375 26.90234375 C-50.86298403 26.63467451 -50.86298403 26.63467451 -52 28 C-54.85877909 28.23701239 -57.69883297 28.42219182 -60.5625 28.5625 C-61.36880859 28.60568359 -62.17511719 28.64886719 -63.00585938 28.69335938 C-65.00368805 28.79975262 -67.0018207 28.90040888 -69 29 C-69 29.66 -69 30.32 -69 31 C-69.66 31 -70.32 31 -71 31 C-71 31.66 -71 32.32 -71 33 C-70.15695313 33.19335938 -69.31390625 33.38671875 -68.4453125 33.5859375 C-67.34960938 33.84632812 -66.25390625 34.10671875 -65.125 34.375 C-63.48917969 34.75785156 -63.48917969 34.75785156 -61.8203125 35.1484375 C-59 36 -59 36 -57 38 C-56.68115234 40.79736328 -56.68115234 40.79736328 -56.5859375 44.3203125 C-56.52792969 46.20556641 -56.52792969 46.20556641 -56.46875 48.12890625 C-56.4378125 49.44761719 -56.406875 50.76632813 -56.375 52.125 C-56.33681971 53.46486918 -56.29776794 54.80471383 -56.2578125 56.14453125 C-56.1632797 59.42954619 -56.07772844 62.71455138 -56 66 C-53.58354218 66.16687448 -53.58354218 66.16687448 -51 66 C-48.36495923 63.36495923 -48.73589407 62.11470438 -48.69140625 58.44140625 C-48.66626953 57.33345703 -48.64113281 56.22550781 -48.61523438 55.08398438 C-48.58013744 52.74028883 -48.54887434 50.39653266 -48.52148438 48.05273438 C-48.49505859 46.94349609 -48.46863281 45.83425781 -48.44140625 44.69140625 C-48.42795166 43.67248291 -48.41449707 42.65355957 -48.40063477 41.60375977 C-48 39 -48 39 -46.70288086 37.15600586 C-43.94979315 35.28706388 -41.21878194 35.8178048 -38 36 C-36.52793987 38.94412027 -36.76192808 41.96285915 -36.68359375 45.1953125 C-36.66281265 45.90275604 -36.64203156 46.61019958 -36.62062073 47.33908081 C-36.55518922 49.60095425 -36.49627026 51.86294462 -36.4375 54.125 C-36.39430867 55.65756422 -36.35069418 57.19011657 -36.30664062 58.72265625 C-36.19951445 62.48165073 -36.0982291 66.24076292 -36 70 C-35.01 70.33 -34.02 70.66 -33 71 C-33 71.66 -33 72.32 -33 73 C-34.95803507 73.05389087 -36.91648909 73.09274217 -38.875 73.125 C-40.51082031 73.15980469 -40.51082031 73.15980469 -42.1796875 73.1953125 C-45 73 -45 73 -47 71 C-47 70.01 -47 69.02 -47 68 C-48.010625 68.825 -49.02125 69.65 -50.0625 70.5 C-52.81072881 72.43927436 -54.13216924 73.02318759 -57.5625 73.625 C-62.1268385 72.79512027 -63.74188608 71.25811392 -67 68 C-68.39560045 65.20879909 -68.21808288 62.79794308 -68.31640625 59.6796875 C-68.35830078 58.42285156 -68.40019531 57.16601562 -68.44335938 55.87109375 C-68.48267578 54.55238281 -68.52199219 53.23367187 -68.5625 51.875 C-68.60569512 50.53514249 -68.64930973 49.19529844 -68.69335938 47.85546875 C-68.79970981 44.57042185 -68.90173808 41.28529719 -69 38 C-70.485 37.505 -70.485 37.505 -72 37 C-72.33 35.02 -72.66 33.04 -73 31 C-79.4658894 40.6988341 -79.73778411 54.99038113 -77.57666016 66.19482422 C-75.64161451 73.8577487 -72.39811224 80.46566181 -68 87 C-68 90 -68 90 -69.609375 91.6484375 C-70.31578125 92.21820313 -71.0221875 92.78796875 -71.75 93.375 C-74.91876087 96.02125243 -77.55827612 98.64262966 -80 102 C-83.03964484 101.70212835 -83.92729777 101.0838316 -85.96484375 98.734375 C-96.69915961 82.49473674 -101.82208322 65.0427853 -98.3125 45.6953125 C-94.42254775 27.5780211 -84.56026348 12.51868078 -69.18359375 2.08984375 C-47.89873452 -10.98078036 -22.05428289 -11.82470199 0 0 Z " fill="#373E61" transform="translate(112,46)"/>
<path d="M0 0 C-3.42090589 1.14030196 -3.88846292 0.8705414 -7.078125 -0.41015625 C-12.04958084 -2.17146629 -16.50600818 -2.5008283 -21.75 -2.4375 C-22.62108398 -2.43137695 -23.49216797 -2.42525391 -24.38964844 -2.41894531 C-31.75544663 -2.24194831 -38.18217814 -0.85235404 -45 2 C-46.07894531 2.41572266 -46.07894531 2.41572266 -47.1796875 2.83984375 C-60.64674104 8.70801768 -69.0378639 20.11696504 -74.95703125 33.06640625 C-80.3476136 48.22868095 -79.60996526 64.40448212 -73 79 C-71.45318439 81.78008752 -69.77849597 84.35766313 -68 87 C-68 90 -68 90 -69.609375 91.6484375 C-70.31578125 92.21820313 -71.0221875 92.78796875 -71.75 93.375 C-74.91876087 96.02125243 -77.55827612 98.64262966 -80 102 C-83.03964484 101.70212835 -83.92729777 101.0838316 -85.96484375 98.734375 C-96.69915961 82.49473674 -101.82208322 65.0427853 -98.3125 45.6953125 C-94.42254775 27.5780211 -84.56026348 12.51868078 -69.18359375 2.08984375 C-47.89873452 -10.98078036 -22.05428289 -11.82470199 0 0 Z " fill="#F8FAFA" transform="translate(112,46)"/>
<path d="M0 0 C4.02446889 1.34148963 5.27516512 3.94094107 7.4375 7.375 C7.83783447 8.0055127 8.23816895 8.63602539 8.65063477 9.28564453 C11.93428961 14.60587761 14.31269559 19.96766818 16 26 C16.53173828 27.87558594 16.53173828 27.87558594 17.07421875 29.7890625 C20.95892561 45.681892 17.27128576 63.15651032 9.6328125 77.3203125 C7.07596124 81.51648466 4.23143837 85.30283326 1 89 C0.49082031 89.60328125 -0.01835937 90.2065625 -0.54296875 90.828125 C-10.87226046 102.15208925 -27.03349109 109.31536284 -42.22265625 110.54296875 C-55.27682903 111.11080136 -68.86397114 109.30266508 -80 102 C-78 101 -78 101 -76.17211914 101.54101562 C-75.44629639 101.82654297 -74.72047363 102.11207031 -73.97265625 102.40625 C-69.04617731 104.13007487 -64.63145004 104.54001265 -59.4375 104.5 C-58.57342529 104.49500488 -57.70935059 104.49000977 -56.8190918 104.48486328 C-44.72084692 104.16224342 -33.4755995 100.72508714 -24 93 C-22.97519531 92.21496094 -22.97519531 92.21496094 -21.9296875 91.4140625 C-12.16711769 83.50749455 -4.75435922 71.56404731 -3 59 C-2.0023378 43.53447938 -2.76911849 30.12538562 -12.0234375 17.12109375 C-13 15 -13 15 -12.515625 13.08203125 C-10.40964042 10.18901635 -7.93896765 7.72936973 -5.375 5.25 C-4.859375 4.74339844 -4.34375 4.23679687 -3.8125 3.71484375 C-2.54616661 2.47196098 -1.2736856 1.23534724 0 0 Z " fill="#F8FAFA" transform="translate(149,52)"/>
<path d="M0 0 C0.66 0.33 1.32 0.66 2 1 C1.67 1.66 1.34 2.32 1 3 C11.23 3 21.46 3 32 3 C32 5.31 32 7.62 32 10 C35.96 10 39.92 10 44 10 C44.144375 8.865625 44.28875 7.73125 44.4375 6.5625 C45 3 45 3 46 2 C48.30993382 1.87442838 50.62418536 1.82424271 52.9375 1.8125 C54.20464844 1.79832031 55.47179687 1.78414063 56.77734375 1.76953125 C60 2 60 2 62 4 C61.01 6.31 60.02 8.62 59 11 C61.97 11 64.94 11 68 11 C63.86027032 19.27945935 54.79051085 22.81882207 46.56640625 26.25 C44 27 44 27 41 26 C42.98 25.34 44.96 24.68 47 24 C47 23.34 47 22.68 47 22 C46.26394531 22.45632812 45.52789062 22.91265625 44.76953125 23.3828125 C43.79371094 23.95773438 42.81789062 24.53265625 41.8125 25.125 C40.36810547 25.99511719 40.36810547 25.99511719 38.89453125 26.8828125 C36 28 36 28 33.25390625 27.16015625 C32.13822266 26.58587891 32.13822266 26.58587891 31 26 C29.05925139 26.27617533 29.05925139 26.27617533 27 27 C24.66905466 27.3496418 22.33595238 27.68554487 20 28 C20.495 29.98 20.495 29.98 21 32 C19.68 31.67 18.36 31.34 17 31 C17.33 29.35 17.66 27.7 18 26 C17.29488281 25.88914063 16.58976562 25.77828125 15.86328125 25.6640625 C5.82465256 23.33586758 -1.89007126 17.10992874 -9 10 C-10.41885983 7.71118232 -11.6915737 5.35516735 -13 3 C-12.14535156 2.95101562 -11.29070313 2.90203125 -10.41015625 2.8515625 C-9.30542969 2.77679688 -8.20070313 2.70203125 -7.0625 2.625 C-5.40927734 2.52058594 -5.40927734 2.52058594 -3.72265625 2.4140625 C-2.37494141 2.20910156 -2.37494141 2.20910156 -1 2 C-0.67 1.34 -0.34 0.68 0 0 Z " fill="#2A3158" transform="translate(59,124)"/>
<path d="M0 0 C2.12472576 -0.05386629 4.24983652 -0.09273071 6.375 -0.125 C7.55835938 -0.14820312 8.74171875 -0.17140625 9.9609375 -0.1953125 C13 0 13 0 15 2 C15.31884766 4.79736328 15.31884766 4.79736328 15.4140625 8.3203125 C15.45273437 9.57714844 15.49140625 10.83398438 15.53125 12.12890625 C15.5621875 13.44761719 15.593125 14.76632813 15.625 16.125 C15.66318029 17.46486918 15.70223206 18.80471383 15.7421875 20.14453125 C15.8367203 23.42954619 15.92227156 26.71455138 16 30 C18.41645782 30.16687448 18.41645782 30.16687448 21 30 C23.63504077 27.36495923 23.26410593 26.11470438 23.30859375 22.44140625 C23.33373047 21.33345703 23.35886719 20.22550781 23.38476562 19.08398438 C23.41986256 16.74028883 23.45112566 14.39653266 23.47851562 12.05273438 C23.50494141 10.94349609 23.53136719 9.83425781 23.55859375 8.69140625 C23.57204834 7.67248291 23.58550293 6.65355957 23.59936523 5.60375977 C24 3 24 3 25.29711914 1.15600586 C28.05020685 -0.71293612 30.78121806 -0.1821952 34 0 C35.47206013 2.94412027 35.23807192 5.96285915 35.31640625 9.1953125 C35.33718735 9.90275604 35.35796844 10.61019958 35.37937927 11.33908081 C35.44481078 13.60095425 35.50372974 15.86294462 35.5625 18.125 C35.60569133 19.65756422 35.64930582 21.19011657 35.69335938 22.72265625 C35.80048555 26.48165073 35.9017709 30.24076292 36 34 C36.99 34.33 37.98 34.66 39 35 C39 35.66 39 36.32 39 37 C37.04196493 37.05389087 35.08351091 37.09274217 33.125 37.125 C32.03445312 37.14820313 30.94390625 37.17140625 29.8203125 37.1953125 C27 37 27 37 25 35 C25 34.01 25 33.02 25 32 C23.989375 32.825 22.97875 33.65 21.9375 34.5 C19.18927119 36.43927436 17.86783076 37.02318759 14.4375 37.625 C9.8731615 36.79512027 8.25811392 35.25811392 5 32 C3.60718791 29.21437582 3.83661384 26.86308605 3.7890625 23.75 C3.76070312 22.5021875 3.73234375 21.254375 3.703125 19.96875 C3.65104447 17.32305887 3.60677248 14.67720249 3.5703125 12.03125 C3.539375 10.7834375 3.5084375 9.535625 3.4765625 8.25 C3.45674316 7.10015625 3.43692383 5.9503125 3.41650391 4.765625 C3.27905762 3.85296875 3.14161133 2.9403125 3 2 C2.01 1.34 1.02 0.68 0 0 Z " fill="#F1F4F8" transform="translate(40,82)"/>
<path d="M0 0 C1.26714844 -0.01417969 2.53429687 -0.02835937 3.83984375 -0.04296875 C7.0625 0.1875 7.0625 0.1875 9.0625 2.1875 C8.0725 4.4975 7.0825 6.8075 6.0625 9.1875 C9.0325 9.1875 12.0025 9.1875 15.0625 9.1875 C10.92277032 17.46695935 1.85301085 21.00632207 -6.37109375 24.4375 C-8.9375 25.1875 -8.9375 25.1875 -11.9375 24.1875 C-9.9575 23.5275 -7.9775 22.8675 -5.9375 22.1875 C-5.9375 21.5275 -5.9375 20.8675 -5.9375 20.1875 C-6.67355469 20.64382812 -7.40960938 21.10015625 -8.16796875 21.5703125 C-9.14378906 22.14523438 -10.11960937 22.72015625 -11.125 23.3125 C-12.56939453 24.18261719 -12.56939453 24.18261719 -14.04296875 25.0703125 C-16.9375 26.1875 -16.9375 26.1875 -19.80078125 25.3671875 C-20.50589844 24.97789062 -21.21101563 24.58859375 -21.9375 24.1875 C-21.99808594 23.20007813 -22.05867188 22.21265625 -22.12109375 21.1953125 C-22.20488281 19.91398437 -22.28867188 18.63265625 -22.375 17.3125 C-22.45621094 16.03632813 -22.53742188 14.76015625 -22.62109375 13.4453125 C-22.72956027 10.30449848 -22.72956027 10.30449848 -23.9375 8.1875 C-23.65508117 5.8474583 -23.32499213 3.51245277 -22.9375 1.1875 C-22.2775 1.1875 -21.6175 1.1875 -20.9375 1.1875 C-20.9375 3.4975 -20.9375 5.8075 -20.9375 8.1875 C-16.9775 8.1875 -13.0175 8.1875 -8.9375 8.1875 C-8.793125 7.053125 -8.64875 5.91875 -8.5 4.75 C-7.56464679 -1.17390365 -5.60143797 0.0284337 0 0 Z " fill="#262C4B" transform="translate(111.9375,125.8125)"/>
<path d="M0 0 C3.125 2.1875 3.125 2.1875 5 5 C4.8125 7.8125 4.8125 7.8125 4 10 C1.69 10.33 -0.62 10.66 -3 11 C-3.556875 10.030625 -4.11375 9.06125 -4.6875 8.0625 C-6.68035805 4.81008721 -6.68035805 4.81008721 -9.75 4.125 C-10.4925 4.08375 -11.235 4.0425 -12 4 C-12.55655357 11.51347317 -11.1327973 17.93132908 -6.45703125 24.00390625 C-4.07948574 26.34880811 -2.22513365 27.81983329 1.125 28.3125 C3.5662313 28.25610733 3.5662313 28.25610733 7 27 C8.91744593 24.55690423 8.91744593 24.55690423 10 22 C10.66 22 11.32 22 12 22 C10.36393014 28.58733391 8.71074584 32.1928361 3 36 C-2.19375811 37.7312527 -6.324353 37.82139559 -11.1875 35.4375 C-16.05453953 31.21939908 -19.70126793 26.668038 -20.23828125 20.07421875 C-20.43720889 10.99683628 -20.43720889 10.99683628 -18.4375 6.4375 C-13.0539229 1.0539229 -7.64603424 -1.65473875 0 0 Z " fill="#F1F5F9" transform="translate(128,82)"/>
<path d="M0 0 C1.29550781 -0.03867188 1.29550781 -0.03867188 2.6171875 -0.078125 C5.64802503 0.31843318 6.98446301 1.08480245 9.125 3.25 C9.375 6.9375 9.375 6.9375 9.125 10.25 C5.875 11.0625 5.875 11.0625 2.125 11.25 C-0.3125 8.9375 -0.3125 8.9375 -1.875 6.25 C-1.875 5.59 -1.875 4.93 -1.875 4.25 C-3.525 4.25 -5.175 4.25 -6.875 4.25 C-7.47553579 12.35723312 -5.48420529 18.79456597 -0.5625 25.3125 C2.7918249 27.73073423 5.00796867 28.17648158 9.125 28.25 C11.97402067 27.43028284 11.97402067 27.43028284 14.125 26.25 C13.86321412 30.08952622 13.58124385 31.79375615 10.8125 34.5625 C8.32699789 36.12316411 6.98376363 36.91367487 4.125 37.25 C3.0525 37.394375 1.98 37.53875 0.875 37.6875 C-4.96942501 37.00565042 -8.61027882 34.04759675 -12.26953125 29.52734375 C-15.77124251 23.69940735 -15.81226384 16.84462216 -14.875 10.25 C-11.68586327 3.82616745 -7.18290824 0.12788561 0 0 Z " fill="#EDF4F9" transform="translate(93.875,81.75)"/>
<path d="M0 0 C-0.825 0.433125 -1.65 0.86625 -2.5 1.3125 C-7.57297249 4.6257093 -10.65268408 10.0724791 -14 15 C-11.03 15 -8.06 15 -5 15 C-5 15.33 -5 15.66 -5 16 C-8.63 16 -12.26 16 -16 16 C-16.28875 16.94875 -16.5775 17.8975 -16.875 18.875 C-18 22 -18 22 -20 24 C-22.89967757 24.30675232 -25.71783178 24.51173371 -28.625 24.625 C-29.82769531 24.68300781 -29.82769531 24.68300781 -31.0546875 24.7421875 C-33.03607556 24.83653931 -35.01800645 24.91936215 -37 25 C-37 25.66 -37 26.32 -37 27 C-37.66 27 -38.32 27 -39 27 C-39 27.66 -39 28.32 -39 29 C-35.7 29.66 -32.4 30.32 -29 31 C-29 31.33 -29 31.66 -29 32 C-32.63 32 -36.26 32 -40 32 C-41.26433144 29.3563979 -41.90265178 27.87433416 -42 25 C-39.24519584 18.06239116 -34.06716314 12.36699528 -29 7 C-28.34 7.33 -27.68 7.66 -27 8 C-26.375 10.0625 -26.375 10.0625 -26 12 C-25.35675781 11.48050781 -24.71351562 10.96101563 -24.05078125 10.42578125 C-6.39708357 -3.19854178 -6.39708357 -3.19854178 0 0 Z " fill="#26326F" transform="translate(80,50)"/>
<path d="M0 0 C1.29067383 -0.0309375 1.29067383 -0.0309375 2.60742188 -0.0625 C7.98896068 -0.09494334 12.30445861 0.61360242 17.31567383 2.60253906 C19.59680141 3.45562429 19.59680141 3.45562429 23.3125 3.25 C23.3125 3.91 23.3125 4.57 23.3125 5.25 C19.5625 6.375 19.5625 6.375 17.3125 5.25 C17.3125 5.91 17.3125 6.57 17.3125 7.25 C19.9525 7.58 22.5925 7.91 25.3125 8.25 C25.8075 10.23 25.8075 10.23 26.3125 12.25 C25.21550781 11.816875 24.11851563 11.38375 22.98828125 10.9375 C21.53402378 10.37456163 20.07958717 9.8120859 18.625 9.25 C17.90376953 8.96382812 17.18253906 8.67765625 16.43945312 8.3828125 C12.60209679 6.9109498 9.49683411 5.85385002 5.3125 6.25 C4.9825 6.91 4.6525 7.57 4.3125 8.25 C3.3225 7.59 2.3325 6.93 1.3125 6.25 C1.3125 11.2 1.3125 16.15 1.3125 21.25 C0.9825 21.25 0.6525 21.25 0.3125 21.25 C-0.0175 16.63 -0.3475 12.01 -0.6875 7.25 C-2.0075 7.58 -3.3275 7.91 -4.6875 8.25 C-5.6775 8.25 -6.6675 8.25 -7.6875 8.25 C-9.48090513 9.14781874 -9.48090513 9.14781874 -11.25 10.3125 C-12.384375 10.951875 -13.51875 11.59125 -14.6875 12.25 C-15.3475 11.92 -16.0075 11.59 -16.6875 11.25 C-15.0375 9.93 -13.3875 8.61 -11.6875 7.25 C-20.87223057 10.28724 -28.1586201 14.16956192 -35.6875 20.25 C-36.3475 19.59 -37.0075 18.93 -37.6875 18.25 C-37.50859194 15.27142257 -37.06143481 13.68795838 -35.11328125 11.40625 C-24.8163432 3.33619134 -12.85699543 0.07535235 0 0 Z " fill="#1D2863" transform="translate(89.6875,42.75)"/>
<path d="M0 0 C0.66 0 1.32 0 2 0 C2.495 1.485 2.495 1.485 3 3 C3.66 3.66 4.32 4.32 5 5 C-6.18423818 16.12775213 -19.13492675 22.07241011 -34.90039062 22.19775391 C-38.93581657 22.18290738 -42.96593615 22.10667946 -47 22 C-47.33 20.35 -47.66 18.7 -48 17 C-44.0365245 14.40849679 -43.34346075 15.10942321 -38 16 C-38 11.05 -38 6.1 -38 1 C-37.67 1 -37.34 1 -37 1 C-36.67 5.62 -36.34 10.24 -36 15 C-31.38230671 16.43279094 -31.38230671 16.43279094 -28.83203125 15.00390625 C-28.16558594 14.52824219 -27.49914062 14.05257812 -26.8125 13.5625 C-23.16076294 11 -23.16076294 11 -21 11 C-21 11.66 -21 12.32 -21 13 C-21.33 13.33 -21.66 13.66 -22 14 C-9.14681042 9.49017008 -9.14681042 9.49017008 0 0 Z " fill="#1F2A65" transform="translate(127,135)"/>
<path d="M0 0 C0.99 0.33 1.98 0.66 3 1 C2.4946875 1.33773437 1.989375 1.67546875 1.46875 2.0234375 C0.8190625 2.46945313 0.169375 2.91546875 -0.5 3.375 C-1.1496875 3.81585938 -1.799375 4.25671875 -2.46875 4.7109375 C-2.9740625 5.13632813 -3.479375 5.56171875 -4 6 C-4 6.66 -4 7.32 -4 8 C-5.32 8.33 -6.64 8.66 -8 9 C-8 10.32 -8 11.64 -8 13 C-4.53058454 12.54177532 -1.32604951 12.10868317 2 11 C2 11.66 2 12.32 2 13 C-16.94398103 20.77188965 -34.81184946 21.67093856 -54 14 C-55.69451449 13.04795041 -57.3746566 12.06585019 -59 11 C-57 10 -57 10 -55.17211914 10.54101562 C-54.44629639 10.82654297 -53.72047363 11.11207031 -52.97265625 11.40625 C-48.04617731 13.13007487 -43.63145004 13.54001265 -38.4375 13.5 C-37.57342529 13.49500488 -36.70935059 13.49000977 -35.8190918 13.48486328 C-23.57614968 13.15838482 -12.70383476 9.60691415 -3 2 C-2.01 1.34 -1.02 0.68 0 0 Z " fill="#F1F6FA" transform="translate(128,143)"/>
<path d="M0 0 C-3.42090589 1.14030196 -3.88846292 0.8705414 -7.078125 -0.41015625 C-12.04976162 -2.17153034 -16.50588818 -2.50033126 -21.75 -2.4375 C-22.61963379 -2.43210205 -23.48926758 -2.4267041 -24.38525391 -2.42114258 C-33.01907771 -2.21899956 -40.49806378 -0.41770649 -48.1640625 3.69921875 C-51 5 -51 5 -54 4 C-54 3.34 -54 2.68 -54 2 C-55.32 1.67 -56.64 1.34 -58 1 C-57.34 0.34 -56.68 -0.32 -56 -1 C-57.98 -1 -59.96 -1 -62 -1 C-59.5474195 -3.4525805 -57.53774752 -3.98703035 -54.25 -5.0625 C-53.22390625 -5.40410156 -52.1978125 -5.74570312 -51.140625 -6.09765625 C-34.18191627 -10.97012107 -15.44225338 -8.27957296 0 0 Z " fill="#ECF2F6" transform="translate(112,46)"/>
<path d="M0 0 C0.598125 0.185625 1.19625 0.37125 1.8125 0.5625 C4.16408762 1.22093687 4.16408762 1.22093687 7 0 C7 11.88 7 23.76 7 36 C1.81045499 34.70261375 1.81045499 34.70261375 0 32 C-0.26153286 29.48272281 -0.3497922 27.21896034 -0.29296875 24.70703125 C-0.28872391 24.00100266 -0.28447906 23.29497406 -0.28010559 22.56755066 C-0.26333034 20.31547697 -0.22568243 18.06430258 -0.1875 15.8125 C-0.17245157 14.28451815 -0.15876344 12.75652224 -0.14648438 11.22851562 C-0.11343089 7.48533128 -0.06165832 3.74281804 0 0 Z " fill="#0F206E" transform="translate(36,86)"/>
<path d="M0 0 C0.84304687 0.32484375 0.84304687 0.32484375 1.703125 0.65625 C13.99878108 4.72965754 28.55491056 4.31869052 41 1 C41 1.66 41 2.32 41 3 C38.36 3.99 35.72 4.98 33 6 C37.95 6.99 37.95 6.99 43 8 C43 8.33 43 8.66 43 9 C28.16924365 9.65237931 12.77246108 9.76878578 0 1 C0 0.67 0 0.34 0 0 Z " fill="#D8E1F0" transform="translate(69,153)"/>
<path d="M0 0 C3.77405023 -0.48350822 7.24267325 -0.68078811 11 0 C13.06463632 1.78645374 14.24483697 3.57713321 15.66796875 5.8984375 C17.64385289 9.01581482 20.07205914 10.77221891 23 13 C23.78375 13.598125 24.5675 14.19625 25.375 14.8125 C25.91125 15.204375 26.4475 15.59625 27 16 C17.02773775 14.83125694 6.9725849 9.13859882 0 2 C0 1.34 0 0.68 0 0 Z " fill="#DDE4EF" transform="translate(53,135)"/>
<path d="M0 0 C2.3828125 -0.29296875 2.3828125 -0.29296875 5.125 -0.1875 C6.03507812 -0.16042969 6.94515625 -0.13335937 7.8828125 -0.10546875 C8.58148438 -0.07066406 9.28015625 -0.03585938 10 0 C6.99370368 7.38643774 -1.51843501 10.98184164 -8.4375 14 C-13.57266937 16.14244354 -13.57266937 16.14244354 -17 15 C-16.50371094 14.72027344 -16.00742188 14.44054687 -15.49609375 14.15234375 C-9.19757954 10.43538375 -4.07602768 6.11404152 0 0 Z " fill="#E9F0F8" transform="translate(117,135)"/>
<path d="M0 0 C3.63 0 7.26 0 11 0 C9.20664202 6.47601494 7.17920535 11.51327893 2 16 C1.34 16 0.68 16 0 16 C0 10.72 0 5.44 0 0 Z " fill="#EAEEF6" transform="translate(91,135)"/>
<path d="M0 0 C3.63 0 7.26 0 11 0 C6.76403798 7.69443734 0.30073737 13.17421706 -8 16 C-5.33333333 10.66666667 -2.66666667 5.33333333 0 0 Z " fill="#EDF2F6" transform="translate(104,135)"/>
<path d="M0 0 C3.63 0 7.26 0 11 0 C11 5.28 11 10.56 11 16 C5.95513704 13.47756852 3.24232124 10.28737312 1.23828125 4.984375 C0.76664383 3.33866145 0.37498539 1.67038945 0 0 Z " fill="#E9EDF4" transform="translate(78,135)"/>
<path d="M0 0 C-0.73605469 0.50789063 -1.47210938 1.01578125 -2.23046875 1.5390625 C-8.57249431 5.79820545 -8.57249431 5.79820545 -13.5 11.5 C-16.56182679 14.56182679 -17.60482333 14.36430705 -21.8125 14.375 C-23.54351663 14.27895945 -25.27402225 14.16322732 -27 14 C-21.84514872 8.34629214 -8.01729007 -4.00864504 0 0 Z " fill="#F6F6FB" transform="translate(80,50)"/>
<path d="M0 0 C3.3 0 6.6 0 10 0 C11.1461973 2.1248044 12.29197292 4.24983431 13.4375 6.375 C13.76298828 6.97828125 14.08847656 7.5815625 14.42382812 8.203125 C16.88671875 12.7734375 16.88671875 12.7734375 18 15 C10.69739835 13.88873453 5.83140764 9.42376413 1 4 C0.67 2.68 0.34 1.36 0 0 Z " fill="#EEF3FA" transform="translate(66,135)"/>
<path d="M0 0 C11.00311654 1.54629596 19.96286435 6.38961491 28 14 C28 14.33 28 14.66 28 15 C24.16462361 15.6452035 20.81858272 15.82109421 17 15 C14.31828302 12.71968651 12.31891626 10.25817668 10.1484375 7.4921875 C7.1416457 4.00430901 4.23014829 2.69205931 0 1 C0 0.67 0 0.34 0 0 Z " fill="#EAF1F8" transform="translate(99,49)"/>
<path d="M0 0 C2.25 -0.375 2.25 -0.375 5 0 C6.38123963 1.96722008 7.71488126 3.96868328 9 6 C11.10332891 6.71447643 11.10332891 6.71447643 13 7 C13.33 7.99 13.66 8.98 14 10 C12.02 10 10.04 10 8 10 C8 9.34 8 8.68 8 8 C5.83656989 10.03268602 5.83656989 10.03268602 4 13 C4.30840599 15.15274948 4.30840599 15.15274948 5 17 C4.34 17.33 3.68 17.66 3 18 C-1.67885117 7.4308094 -1.67885117 7.4308094 -1 2 C-0.67 1.34 -0.34 0.68 0 0 Z " fill="#1B2664" transform="translate(87,86)"/>
<path d="M0 0 C5.65602406 2.82801203 8.0777716 6.58463991 10.3125 12.4375 C10.6528125 13.7059375 10.6528125 13.7059375 11 15 C7.37 15 3.74 15 0 15 C0 10.05 0 5.1 0 0 Z " fill="#F5F9FB" transform="translate(91,49)"/>
<path d="M0 0 C0.66 0.33 1.32 0.66 2 1 C1.66226563 1.51949219 1.32453125 2.03898437 0.9765625 2.57421875 C0.53054687 3.27160156 0.08453125 3.96898437 -0.375 4.6875 C-0.81585938 5.37199219 -1.25671875 6.05648437 -1.7109375 6.76171875 C-3.28804692 9.37806398 -3.28804692 9.37806398 -5 14 C-8.63 14 -12.26 14 -16 14 C-12.34385996 7.60175494 -6.88424663 2.81106737 0 0 Z " fill="#F1F4F6" transform="translate(82,50)"/>
<path d="M0 0 C0 4.95 0 9.9 0 15 C-3.3 15 -6.6 15 -10 15 C-9.43659352 11.07702154 -8.29909621 8.50919644 -6.0625 5.25 C-5.53785156 4.47140625 -5.01320313 3.6928125 -4.47265625 2.890625 C-2.22107438 0 -2.22107438 0 0 0 Z " fill="#F1F5FB" transform="translate(89,49)"/>
<path d="M0 0 C1.93559313 -0.13504138 3.873872 -0.23201129 5.8125 -0.3125 C6.89144531 -0.37050781 7.97039062 -0.42851563 9.08203125 -0.48828125 C12 0 12 0 13.88671875 2.33203125 C15 5 15 5 15 8 C10.71 8 6.42 8 2 8 C1.34 5.36 0.68 2.72 0 0 Z " fill="#E4E8F1" transform="translate(104,66)"/>
<path d="M0 0 C6.77557783 1.69389446 12.60009242 5.53896809 16.5 11.375 C16.995 12.24125 17.49 13.1075 18 14 C14.37 14 10.74 14 7 14 C4.66666667 9.33333333 2.33333333 4.66666667 0 0 Z " fill="#F2F6FB" transform="translate(96,50)"/>
<path d="M0 0 C9.66803489 -0.91431503 9.66803489 -0.91431503 12.84375 1.265625 C14.63984461 3.41676157 16 5.12480787 16 8 C11.71 8 7.42 8 3 8 C0 2.25 0 2.25 0 0 Z " fill="#F9FCFD" transform="translate(118,66)"/>
<path d="M0 0 C0.66 0 1.32 0 2 0 C1.91932065 4.43825599 1.80645865 8.87511798 1.6875 13.3125 C1.65366211 15.20645508 1.65366211 15.20645508 1.61914062 17.13867188 C1.58369141 18.34716797 1.54824219 19.55566406 1.51171875 20.80078125 C1.48553467 21.91622314 1.45935059 23.03166504 1.43237305 24.1809082 C1 27 1 27 -0.36791992 28.87182617 C-2.64380392 30.44502886 -4.29927906 30.28428641 -7 30 C-8 29 -8 29 -8.11352539 26.40795898 C-8.10828857 25.28204346 -8.10305176 24.15612793 -8.09765625 22.99609375 C-8.09443359 21.78115234 -8.09121094 20.56621094 -8.08789062 19.31445312 C-8.07951172 18.03505859 -8.07113281 16.75566406 -8.0625 15.4375 C-8.05798828 14.15423828 -8.05347656 12.87097656 -8.04882812 11.54882812 C-8.03699545 8.36583978 -8.02051068 5.18294238 -8 2 C-7.67 2 -7.34 2 -7 2 C-6.67 9.92 -6.34 17.84 -6 26 C-0.94171877 22.76463711 -0.94171877 22.76463711 -0.34057617 19.52636719 C-0.32486572 18.62563477 -0.30915527 17.72490234 -0.29296875 16.796875 C-0.26396484 15.8171875 -0.23496094 14.8375 -0.20507812 13.828125 C-0.19927734 12.81234375 -0.19347656 11.7965625 -0.1875 10.75 C-0.16236328 9.71875 -0.13722656 8.6875 -0.11132812 7.625 C-0.05248438 5.08295011 -0.01618493 2.54262084 0 0 Z " fill="#19245B" transform="translate(63,83)"/>
<path d="M0 0 C4.29 0 8.58 0 13 0 C11 6 11 6 10 7 C7.98035801 7.07244053 5.95832876 7.08377188 3.9375 7.0625 C2.83277344 7.05347656 1.72804688 7.04445312 0.58984375 7.03515625 C-0.69212891 7.01775391 -0.69212891 7.01775391 -2 7 C-1.34 4.69 -0.68 2.38 0 0 Z " fill="#E5EDF5" transform="translate(106,127)"/>
<path d="M0 0 C4.29 0 8.58 0 13 0 C13.66 2.31 14.32 4.62 15 7 C13.06440687 7.13504138 11.126128 7.23201129 9.1875 7.3125 C7.56908203 7.39951172 7.56908203 7.39951172 5.91796875 7.48828125 C3 7 3 7 1.11328125 4.60546875 C0 2 0 2 0 0 Z " fill="#DAE5F2" transform="translate(61,127)"/>
<path d="M0 0 C3.96 0 7.92 0 12 0 C11.67 2.31 11.34 4.62 11 7 C6.38 7 1.76 7 -3 7 C-2.01 4.69 -1.02 2.38 0 0 Z " fill="#F0F7FC" transform="translate(64,66)"/>
<path d="M0 0 C1.79244141 0.01740234 1.79244141 0.01740234 3.62109375 0.03515625 C5.41740234 0.04869141 5.41740234 0.04869141 7.25 0.0625 C8.17683594 0.07410156 9.10367188 0.08570312 10.05859375 0.09765625 C8.53653366 2.72666913 7.21493411 4.94131589 5.05859375 7.09765625 C2.45703125 7.29296875 2.45703125 7.29296875 -0.56640625 7.22265625 C-2.07074219 7.19558594 -2.07074219 7.19558594 -3.60546875 7.16796875 C-4.37632813 7.14476562 -5.1471875 7.1215625 -5.94140625 7.09765625 C-3.71556663 0.12335879 -3.71556663 0.12335879 0 0 Z " fill="#E9F2F8" transform="translate(123.94140625,126.90234375)"/>
<path d="M0 0 C4.29 0 8.58 0 13 0 C12.67 2.31 12.34 4.62 12 7 C8.04 7 4.08 7 0 7 C0 4.69 0 2.38 0 0 Z " fill="#E8F2F9" transform="translate(91,127)"/>
<path d="M0 0 C3.96 0 7.92 0 12 0 C12.33 2.31 12.66 4.62 13 7 C8.71 7 4.42 7 0 7 C0 4.69 0 2.38 0 0 Z " fill="#F7FAFB" transform="translate(91,66)"/>
<path d="M0 0 C2.10241603 -0.13496251 4.2072961 -0.23197307 6.3125 -0.3125 C7.48425781 -0.37050781 8.65601563 -0.42851563 9.86328125 -0.48828125 C13 0 13 0 14.91796875 2.39453125 C16 5 16 5 16 7 C6.30022121 7.91731708 6.30022121 7.91731708 3.15625 5.69921875 C0 1.85483285 0 1.85483285 0 0 Z " fill="#F4FCF9" transform="translate(46,127)"/>
<path d="M0 0 C1.51400391 0.01740234 1.51400391 0.01740234 3.05859375 0.03515625 C4.07050781 0.04417969 5.08242188 0.05320312 6.125 0.0625 C7.29869141 0.07990234 7.29869141 0.07990234 8.49609375 0.09765625 C6.62109375 5.97265625 6.62109375 5.97265625 5.49609375 7.09765625 C3.30969922 7.17024571 1.12108986 7.18139408 -1.06640625 7.16015625 C-2.86271484 7.14662109 -2.86271484 7.14662109 -4.6953125 7.1328125 C-5.62214844 7.12121094 -6.54898438 7.10960938 -7.50390625 7.09765625 C-2.89699701 0.1129874 -2.89699701 0.1129874 0 0 Z " fill="#F1FBFD" transform="translate(53.50390625,65.90234375)"/>
<path d="M0 0 C4.29 0 8.58 0 13 0 C13 2.31 13 4.62 13 7 C9.37 7 5.74 7 2 7 C1.34 4.69 0.68 2.38 0 0 Z " fill="#E8F2FA" transform="translate(76,127)"/>
<path d="M0 0 C3.63 0 7.26 0 11 0 C11 2.31 11 4.62 11 7 C6.71 7 2.42 7 -2 7 C-1.34 4.69 -0.68 2.38 0 0 Z " fill="#F6FCFE" transform="translate(78,66)"/>
<path d="M0 0 C0 0.33 0 0.66 0 1 C-1.16015625 1.03738281 -2.3203125 1.07476562 -3.515625 1.11328125 C-15.86443961 1.59689899 -26.65123519 3.24229921 -38.0390625 8.328125 C-38.68617187 8.54984375 -39.33328125 8.7715625 -40 9 C-40.66 8.67 -41.32 8.34 -42 8 C-41.67 7.34 -41.34 6.68 -41 6 C-38.95475679 5.40494001 -36.90666043 5.04533219 -34.8125 4.66015625 C-34.214375 4.44230469 -33.61625 4.22445312 -33 4 C-32.67 3.01 -32.34 2.02 -32 1 C-26.49734271 -0.08399593 -21.02550373 -0.36130517 -15.4375 -0.625 C-14.03854492 -0.70234375 -14.03854492 -0.70234375 -12.61132812 -0.78125 C-11.25491211 -0.84699219 -11.25491211 -0.84699219 -9.87109375 -0.9140625 C-9.05568115 -0.9548291 -8.24026855 -0.9955957 -7.40014648 -1.03759766 C-4.82439775 -0.99724924 -2.50598353 -0.57682485 0 0 Z " fill="#1C285F" transform="translate(88,37)"/>
<path d="M0 0 C0.99 0 1.98 0 3 0 C3 0.66 3 1.32 3 2 C3.66 2 4.32 2 5 2 C4.67 3.65 4.34 5.3 4 7 C4.66 7 5.32 7 6 7 C5.98839844 8.03640625 5.97679688 9.0728125 5.96484375 10.140625 C5.95546163 11.51041486 5.94636188 12.88020668 5.9375 14.25 C5.92912109 14.93191406 5.92074219 15.61382812 5.91210938 16.31640625 C5.89571608 19.69342554 5.94371232 22.77291639 7 26 C6.34 26 5.68 26 5 26 C3 22 3 22 3 11 C2.67 18.26 2.34 25.52 2 33 C1.67 33 1.34 33 1 33 C0.67 22.11 0.34 11.22 0 0 Z " fill="#464F7C" transform="translate(74,83)"/>
<path d="M0 0 C1.32 0.66 2.64 1.32 4 2 C2.68 2.33 1.36 2.66 0 3 C-0.33 6.3 -0.66 9.6 -1 13 C-1.33 12.34 -1.66 11.68 -2 11 C-5.39914975 12.13304992 -6.05254451 13.12518475 -8 16 C-8.45760607 10.2799241 -7.63848132 7.44703273 -4 3 C-1.75 1.125 -1.75 1.125 0 0 Z " fill="#E6ECF4" transform="translate(116,83)"/>
<path d="M0 0 C5.67438427 0.57252756 10.82344451 1.64180357 16.25 3.375 C16.94351563 3.58382812 17.63703125 3.79265625 18.3515625 4.0078125 C22.07490737 5.17759901 25.05827694 6.40703792 28 9 C26.56206608 8.68950274 25.1246682 8.3765224 23.6875 8.0625 C22.88699219 7.88847656 22.08648437 7.71445312 21.26171875 7.53515625 C19 7 19 7 16 6 C13.60745424 5.77439324 11.21071877 5.59151405 8.8125 5.4375 C7.54019531 5.35371094 6.26789063 5.26992188 4.95703125 5.18359375 C3.98121094 5.12300781 3.00539063 5.06242187 2 5 C2 4.01 2 3.02 2 2 C1.34 1.34 0.68 0.68 0 0 Z " fill="#BBCBED" transform="translate(84,38)"/>
<path d="M0 0 C-0.5053125 0.33773437 -1.010625 0.67546875 -1.53125 1.0234375 C-2.50578125 1.69246094 -2.50578125 1.69246094 -3.5 2.375 C-4.1496875 2.81585938 -4.799375 3.25671875 -5.46875 3.7109375 C-5.9740625 4.13632813 -6.479375 4.56171875 -7 5 C-7 5.66 -7 6.32 -7 7 C-8.32 7.33 -9.64 7.66 -11 8 C-11 9.32 -11 10.64 -11 12 C-7.53058454 11.54177532 -4.32604951 11.10868317 -1 10 C-1 10.66 -1 11.32 -1 12 C-2.76641683 12.6987693 -4.53832664 13.38366583 -6.3125 14.0625 C-7.29863281 14.44535156 -8.28476563 14.82820312 -9.30078125 15.22265625 C-12 16 -12 16 -15 15 C-14.34 14.67 -13.68 14.34 -13 14 C-13.20625 12.824375 -13.4125 11.64875 -13.625 10.4375 C-13.65234375 8.25 -13.65234375 8.25 -13 6 C-9.3437315 2.33699804 -5.23268856 -1.74422952 0 0 Z " fill="#EDF4F7" transform="translate(131,144)"/>
<path d="M0 0 C0 0.66 0 1.32 0 2 C0.99 2.33 1.98 2.66 3 3 C-0.3 5.64 -3.6 8.28 -7 11 C-7.66 10.34 -8.32 9.68 -9 9 C-8.90532495 5.40234821 -8.2283716 4.22236182 -5.625 1.6875 C-3 0 -3 0 0 0 Z " fill="#1B286B" transform="translate(61,52)"/>
<path d="M0 0 C2.22693206 0.72775558 4.44991827 1.46426354 6.66796875 2.21875 C8.4326881 2.80994576 10.21333018 3.35388797 12 3.875 C14 5 14 5 14.8125 7.625 C14.874375 8.40875 14.93625 9.1925 15 10 C11.625 9.75 11.625 9.75 8 9 C6.9375 7.0625 6.9375 7.0625 6 5 C2.95800528 3.70768358 2.95800528 3.70768358 0 3 C0 2.01 0 1.02 0 0 Z " fill="#16235F" transform="translate(63,145)"/>
<path d="M0 0 C0.66 0.66 1.32 1.32 2 2 C2.804375 2.61875 3.60875 3.2375 4.4375 3.875 C6.74072587 5.78499219 8.33113907 7.540626 10 10 C6.31731261 9.50233954 4.34971233 8.93714041 2 6 C1.67 5.34 1.34 4.68 1 4 C0.34 4 -0.32 4 -1 4 C-1 5.32 -1 6.64 -1 8 C-4.71599191 8.20086443 -5.77208445 8.1519437 -9 6 C-6.32687076 3.80421527 -4.32881882 2.80350799 -1 2 C-0.67 1.34 -0.34 0.68 0 0 Z " fill="#1B296E" transform="translate(49,132)"/>
<path d="M0 0 C-0.25672062 3.7652358 -0.59325866 5.55839511 -3.1875 8.375 C-6.41971069 10.24249951 -8.32823991 10.34155908 -12 10 C-11.01 8.68 -10.02 7.36 -9 6 C-9.33 5.34 -9.66 4.68 -10 4 C-8.35 4 -6.7 4 -5 4 C-5 3.34 -5 2.68 -5 2 C-2 0 -2 0 0 0 Z " fill="#E3ECF5" transform="translate(108,108)"/>
<path d="M0 0 C0.66 0.33 1.32 0.66 2 1 C1.57847656 1.48210938 1.15695313 1.96421875 0.72265625 2.4609375 C0.17480469 3.09257813 -0.37304688 3.72421875 -0.9375 4.375 C-1.48277344 5.00148438 -2.02804688 5.62796875 -2.58984375 6.2734375 C-4.06958624 7.95632334 -4.06958624 7.95632334 -5 10 C-2.03 10 0.94 10 4 10 C4 10.33 4 10.66 4 11 C0.37 11 -3.26 11 -7 11 C-7.66 12.98 -8.32 14.96 -9 17 C-9.66 16.34 -10.32 15.68 -11 15 C-10.34 13.68 -9.68 12.36 -9 11 C-11.97 11 -14.94 11 -18 11 C-18 10.67 -18 10.34 -18 10 C-17.28714844 9.9484375 -16.57429688 9.896875 -15.83984375 9.84375 C-10.0927973 9.16307693 -6.66988527 8.3673458 -2.8125 3.875 C-1.84694148 2.60417122 -0.89872124 1.31894244 0 0 Z " fill="#30344C" transform="translate(71,55)"/>
<path d="M0 0 C3 0.25 3 0.25 5 2.25 C4.34 3.9 3.68 5.55 3 7.25 C0.69 7.25 -1.62 7.25 -4 7.25 C-4.625 4.875 -4.625 4.875 -5 2.25 C-3 0.25 -3 0.25 0 0 Z " fill="#1A2B60" transform="translate(84,149.75)"/>
<path d="M0 0 C0 0.66 0 1.32 0 2 C-3.75 3.125 -3.75 3.125 -6 2 C-6 2.66 -6 3.32 -6 4 C-3.36 4.33 -0.72 4.66 2 5 C2.33 6.32 2.66 7.64 3 9 C1.1827669 8.41022253 -0.62872043 7.80271547 -2.4375 7.1875 C-3.44683594 6.85105469 -4.45617187 6.51460937 -5.49609375 6.16796875 C-6.32238281 5.78253906 -7.14867188 5.39710937 -8 5 C-8.33 4.01 -8.66 3.02 -9 2 C-9.99 1.67 -10.98 1.34 -12 1 C-8.00439392 -1.83022097 -4.57262677 -0.76210446 0 0 Z " fill="#1E2C71" transform="translate(113,46)"/>
<path d="M0 0 C1.65 0 3.3 0 5 0 C5 0.99 5 1.98 5 3 C4.01 3.495 4.01 3.495 3 4 C2.34 3.67 1.68 3.34 1 3 C1 4.65 1 6.3 1 8 C1.66 8 2.32 8 3 8 C3.625 10.875 3.625 10.875 4 14 C3.34 14.66 2.68 15.32 2 16 C-0.02208442 11.11329598 -1.51198891 7.37588358 -1 2 C-0.67 1.34 -0.34 0.68 0 0 Z " fill="#2A3163" transform="translate(116,86)"/>
<path d="M0 0 C1.37562854 1.28965176 2.70766393 2.62689293 4 4 C4 4.66 4 5.32 4 6 C-0.29 6 -4.58 6 -9 6 C-7 2 -7 2 -3.375 0.75 C-2.26125 0.5025 -1.1475 0.255 0 0 Z " fill="#DDDEED" transform="translate(130,68)"/>
<path d="M0 0 C0.99 0.495 0.99 0.495 2 1 C2 7.6 2 14.2 2 21 C2.66 21 3.32 21 4 21 C3.67 21.99 3.34 22.98 3 24 C2.01 24 1.02 24 0 24 C0 16.08 0 8.16 0 0 Z " fill="#182155" transform="translate(76,93)"/>
<path d="M0 0 C0.99 0.33 1.98 0.66 3 1 C2.67 1.99 2.34 2.98 2 4 C1.01 4 0.02 4 -1 4 C-2.60767163 5.53899953 -2.60767163 5.53899953 -4.0625 7.5 C-5.59765625 9.46875 -5.59765625 9.46875 -7 11 C-7.66 11 -8.32 11 -9 11 C-9 12.98 -9 14.96 -9 17 C-9.66 17.33 -10.32 17.66 -11 18 C-11.66 16.35 -12.32 14.7 -13 13 C-8.71 8.71 -4.42 4.42 0 0 Z " fill="#E5EEF9" transform="translate(149,52)"/>
<path d="M0 0 C0.66 0 1.32 0 2 0 C2 0.66 2 1.32 2 2 C3.65 2.33 5.3 2.66 7 3 C6.01 4.485 6.01 4.485 5 6 C2.3984375 6.29296875 2.3984375 6.29296875 -0.625 6.1875 C-2.12933594 6.14689453 -2.12933594 6.14689453 -3.6640625 6.10546875 C-4.82035156 6.05326172 -4.82035156 6.05326172 -6 6 C-4 4 -2 2 0 0 Z " fill="#E9F1F4" transform="translate(59,58)"/>
<path d="M0 0 C1 2 1 2 0.3125 4.4375 C-1.18600382 7.36315031 -2.07897876 8.50001612 -5 10 C-8.75 10.1875 -8.75 10.1875 -12 10 C-9.62226815 7.49914935 -7.04733058 5.41316697 -4.3125 3.3125 C-3.50425781 2.68988281 -2.69601563 2.06726563 -1.86328125 1.42578125 C-1.24839844 0.95527344 -0.63351563 0.48476562 0 0 Z " fill="#202D65" transform="translate(146,144)"/>
<path d="M0 0 C0.66 0 1.32 0 2 0 C3.125 4.75 3.125 4.75 2 7 C1.34 7 0.68 7 0 7 C0 7.66 0 8.32 0 9 C3.3 9.66 6.6 10.32 10 11 C10 11.33 10 11.66 10 12 C6.37 12 2.74 12 -1 12 C-3.32409827 5.76163095 -3.32409827 5.76163095 -1.75 2.0625 C-0.88375 1.0415625 -0.88375 1.0415625 0 0 Z " fill="#2F3B75" transform="translate(41,70)"/>
<path d="M0 0 C0.99 0.99 1.98 1.98 3 3 C-2.98187887 7.88316643 -2.98187887 7.88316643 -7.8125 8.4375 C-11 8 -11 8 -13 6 C-10.33333333 6 -7.66666667 6 -5 6 C-5 4.68 -5 3.36 -5 2 C-3.35 1.34 -1.7 0.68 0 0 Z " fill="#CFDDEB" transform="translate(62,111)"/>
<path d="M0 0 C4.60895683 1.31684481 8.14140235 3.15198745 12 6 C12 6.33 12 6.66 12 7 C10.35 7.33 8.7 7.66 7 8 C7 8.99 7 9.98 7 11 C4.23455278 7.54319097 2.15078722 3.85658398 0 0 Z " fill="#E8EAF6" transform="translate(96,50)"/>
<path d="M0 0 C3.33333333 3.33333333 6.66666667 6.66666667 10 10 C5.25 11.125 5.25 11.125 3 10 C0 3.76923077 0 3.76923077 0 0 Z " fill="#1B2359" transform="translate(80,109)"/>
<path d="M0 0 C0.33 0 0.66 0 1 0 C1.13277344 0.80824219 1.26554687 1.61648437 1.40234375 2.44921875 C1.57894531 3.51785156 1.75554687 4.58648437 1.9375 5.6875 C2.11152344 6.74324219 2.28554687 7.79898438 2.46484375 8.88671875 C2.93167121 11.60249604 3.44422616 14.30124235 4 17 C2.68 17.33 1.36 17.66 0 18 C0 16.02 0 14.04 0 12 C-0.66 11.67 -1.32 11.34 -2 11 C-1.34 7.37 -0.68 3.74 0 0 Z " fill="#2E3669" transform="translate(107,96)"/>
<path d="M0 0 C0.66 0.33 1.32 0.66 2 1 C2 2.98 2 4.96 2 7 C4.64 7 7.28 7 10 7 C10 7.33 10 7.66 10 8 C6.64463 8.64674116 3.42221863 9.15019141 0 9 C-2.625 6.5625 -2.625 6.5625 -4 4 C-2.68 2.68 -1.36 1.36 0 0 Z " fill="#2E396D" transform="translate(51,57)"/>
<path d="M0 0 C0 0.66 0 1.32 0 2 C-3.51827628 3.59245395 -6.22697352 4.24261382 -10.08203125 4.1953125 C-11.01337891 4.18886719 -11.94472656 4.18242187 -12.90429688 4.17578125 C-13.86400391 4.15902344 -14.82371094 4.14226562 -15.8125 4.125 C-16.79154297 4.11597656 -17.77058594 4.10695312 -18.77929688 4.09765625 C-21.18645061 4.07417182 -23.59309743 4.0413284 -26 4 C-26 3.67 -26 3.34 -26 3 C-24.9378125 2.95101562 -23.875625 2.90203125 -22.78125 2.8515625 C-15.25178065 2.46628003 -7.28293899 0 0 0 Z " fill="#CCD1E8" transform="translate(110,154)"/>
<path d="M0 0 C0.66 0.33 1.32 0.66 2 1 C-1.29121528 8.92207096 -5.65079597 14.27326695 -12 20 C-12 16.31786279 -11.29387611 15.94631938 -8.8125 13.375 C-5.06481367 9.27692023 -2.4836959 4.9445006 0 0 Z " fill="#30344B" transform="translate(119,127)"/>
<path d="M0 0 C0.99 0.33 1.98 0.66 3 1 C3.6875 3.0625 3.6875 3.0625 4 5 C2.25 6.5625 2.25 6.5625 0 8 C-2.25 7.6875 -2.25 7.6875 -4 7 C-2.92598892 4.08482708 -2.22189824 2.22189824 0 0 Z " fill="#17245F" transform="translate(47,62)"/>
<path d="M0 0 C1.65 0 3.3 0 5 0 C4.67 1.98 4.34 3.96 4 6 C3.01 6.33 2.02 6.66 1 7 C1 6.34 1 5.68 1 5 C0.34 5 -0.32 5 -1 5 C-1 5.66 -1 6.32 -1 7 C-1.66 7 -2.32 7 -3 7 C-3 5.35 -3 3.7 -3 2 C-2.01 2 -1.02 2 0 2 C0 1.34 0 0.68 0 0 Z " fill="#272E76" transform="translate(106,84)"/>
<path d="M0 0 C0 1.32 0 2.64 0 4 C-1.32 4 -2.64 4 -4 4 C-4.33 5.98 -4.66 7.96 -5 10 C-5.28875 9.360625 -5.5775 8.72125 -5.875 8.0625 C-6.82823451 5.84793921 -6.82823451 5.84793921 -9 5 C-2.87096774 0 -2.87096774 0 0 0 Z " fill="#DAE4F0" transform="translate(91,82)"/>
<path d="M0 0 C0.33 0 0.66 0 1 0 C1 5.94 1 11.88 1 18 C-1.89075523 15.10924477 -1.96578416 11.92797891 -2 8 C-1.53445733 5.22555376 -0.8202555 2.70201811 0 0 Z " fill="#E2EDF8" transform="translate(166,86)"/>
<path d="M0 0 C2.64 0 5.28 0 8 0 C7.34 1.65 6.68 3.3 6 5 C4.35 5 2.7 5 1 5 C0.67 3.35 0.34 1.7 0 0 Z " fill="#F2FEFC" transform="translate(63,128)"/>
<path d="M0 0 C0.66 0 1.32 0 2 0 C3.4049404 3.89060419 2.69513239 7.23092362 2.0625 11.25 C1.86785156 12.51328125 1.67320313 13.7765625 1.47265625 15.078125 C1.31667969 16.04234375 1.16070312 17.0065625 1 18 C0.67 18 0.34 18 0 18 C0 12.06 0 6.12 0 0 Z " fill="#D1D9ED" transform="translate(13,96)"/>
<path d="M0 0 C1.984375 1.14453125 1.984375 1.14453125 4 3 C4.390625 5.69921875 4.390625 5.69921875 4.25 8.6875 C4.21390625 9.68136719 4.1778125 10.67523438 4.140625 11.69921875 C4.09421875 12.45847656 4.0478125 13.21773437 4 14 C1.8553857 11.8553857 1.55435397 10.98260002 0.875 8.125 C0.70742187 7.44695312 0.53984375 6.76890625 0.3671875 6.0703125 C0 4 0 4 0 0 Z " fill="#233164" transform="translate(164,74)"/>
<path d="M0 0 C0.33 0.99 0.66 1.98 1 3 C0.01 3 -0.98 3 -2 3 C-1.34 2.01 -0.68 1.02 0 0 Z M-3 3 C-3 6 -3 6 -5 9 C-5.66 9 -6.32 9 -7 9 C-8.37310707 10.29233607 -9.71034824 11.62437146 -11 13 C-11 10 -11 10 -9.25 8.17578125 C-8.5075 7.56089844 -7.765 6.94601563 -7 6.3125 C-6.2575 5.68988281 -5.515 5.06726562 -4.75 4.42578125 C-4.1725 3.95527344 -3.595 3.48476563 -3 3 Z " fill="#DCE2F0" transform="translate(40,50)"/>
<path d="M0 0 C0 2 0 2 -1.5 3.75 C-5.39072654 5.69536327 -7.93385418 4.28761284 -12 3 C-12 2.67 -12 2.34 -12 2 C-10.7625 1.67 -9.525 1.34 -8.25 1 C-7.55390625 0.814375 -6.8578125 0.62875 -6.140625 0.4375 C-4 0 -4 0 0 0 Z " fill="#FBFEF6" transform="translate(112,156)"/>
<path d="M0 0 C0.66 0 1.32 0 2 0 C3.85776765 3.13498292 4.20140476 5.37471432 4 9 C2.68 9 1.36 9 0 9 C0 6.03 0 3.06 0 0 Z " fill="#FAFAF6" transform="translate(82,88)"/>
<path d="M0 0 C1.46022163 0.95545366 2.91811468 1.91446678 4.375 2.875 C5.18710938 3.40867188 5.99921875 3.94234375 6.8359375 4.4921875 C9 6 9 6 11 8 C6.15340923 7.40895235 2.39251833 6.02055843 -2 4 C-1.34 2.68 -0.68 1.36 0 0 Z " fill="#D1DAEE" transform="translate(69,143)"/>
<path d="M0 0 C0.66 0.33 1.32 0.66 2 1 C0.35 4.3 -1.3 7.6 -3 11 C-4.65 11 -6.3 11 -8 11 C-8.33 10.01 -8.66 9.02 -9 8 C-7 8 -5 8 -3 8 C-2.690625 6.865625 -2.38125 5.73125 -2.0625 4.5625 C-1 1 -1 1 0 0 Z " fill="#252F6B" transform="translate(142,120)"/>
<path d="M0 0 C2.76390737 2.40339772 3.04065919 3.16263678 4 7 C0.37 7 -3.26 7 -7 7 C-7 6.67 -7 6.34 -7 6 C-5.5459375 5.62875 -5.5459375 5.62875 -4.0625 5.25 C-2.5465625 4.63125 -2.5465625 4.63125 -1 4 C-0.03122943 1.96756452 -0.03122943 1.96756452 0 0 Z " fill="#DCE9F7" transform="translate(58,127)"/>
<path d="M0 0 C3.71888239 0.50712033 6.73454239 1.11608215 10 3 C10 3.66 10 4.32 10 5 C10.99 5 11.98 5 13 5 C13.33 5.99 13.66 6.98 14 8 C10.8526115 7.37193369 8.57137632 6.29002627 5.875 4.5625 C5.19179687 4.13066406 4.50859375 3.69882812 3.8046875 3.25390625 C2 2 2 2 0 0 Z " fill="#D3DCED" transform="translate(99,49)"/>
<path d="M0 0 C0.33 0.66 0.66 1.32 1 2 C1.99 2.33 2.98 2.66 4 3 C3.34 3 2.68 3 2 3 C1.67 4.65 1.34 6.3 1 8 C0.34 8 -0.32 8 -1 8 C-1.12375 7.360625 -1.2475 6.72125 -1.375 6.0625 C-1.684375 5.0415625 -1.684375 5.0415625 -2 4 C-2.66 3.67 -3.32 3.34 -4 3 C-2.68 2.01 -1.36 1.02 0 0 Z " fill="#232F6A" transform="translate(122,140)"/>
<path d="M0 0 C4.95 0 9.9 0 15 0 C15 1.65 15 3.3 15 5 C13.68 4.67 12.36 4.34 11 4 C11 3.01 11 2.02 11 1 C7.37 1 3.74 1 0 1 C0 0.67 0 0.34 0 0 Z " fill="#172053" transform="translate(118,134)"/>
<path d="M0 0 C2.6015625 0.0234375 2.6015625 0.0234375 5.625 0.375 C6.62789062 0.48585938 7.63078125 0.59671875 8.6640625 0.7109375 C9.82035156 0.85402344 9.82035156 0.85402344 11 1 C10.67 1.66 10.34 2.32 10 3 C8.0390625 3.484375 8.0390625 3.484375 5.625 3.75 C4.83351563 3.84796875 4.04203125 3.9459375 3.2265625 4.046875 C1 4 1 4 -2 2 C-1.34 1.34 -0.68 0.68 0 0 Z " fill="#111F5F" transform="translate(90,118)"/>
<path d="M0 0 C1.134375 0.020625 2.26875 0.04125 3.4375 0.0625 C3.7675 1.3825 4.0975 2.7025 4.4375 4.0625 C3.1175 3.7325 1.7975 3.4025 0.4375 3.0625 C0.4375 3.7225 0.4375 4.3825 0.4375 5.0625 C-0.2225 5.0625 -0.8825 5.0625 -1.5625 5.0625 C-3.1875 3.0625 -3.1875 3.0625 -4.5625 1.0625 C-3.5625 0.0625 -3.5625 0.0625 0 0 Z " fill="#E6F0F8" transform="translate(70.5625,81.9375)"/>
<path d="M0 0 C3.08236365 2.78407039 3.95206337 3.80825346 5 8 C0.38 7.34 -4.24 6.68 -9 6 C-9 5.67 -9 5.34 -9 5 C-5.7 4.67 -2.4 4.34 1 4 C0.67 2.68 0.34 1.36 0 0 Z " fill="#353C62" transform="translate(112,59)"/>
<path d="M0 0 C0.66 1.32 1.32 2.64 2 4 C0.90536178 5.17561146 -0.20107186 6.3402489 -1.3125 7.5 C-1.92738281 8.1496875 -2.54226562 8.799375 -3.17578125 9.46875 C-5 11 -5 11 -8 11 C-7.67 10.01 -7.34 9.02 -7 8 C-6.360625 7.71125 -5.72125 7.4225 -5.0625 7.125 C-2.27573153 5.60494447 -1.97879012 3.93637037 -1 1 C-0.67 0.67 -0.34 0.34 0 0 Z " fill="#121E55" transform="translate(33,51)"/>
<path d="M0 0 C0.66 0.66 1.32 1.32 2 2 C2.804375 2.61875 3.60875 3.2375 4.4375 3.875 C6.74072587 5.78499219 8.33113907 7.540626 10 10 C6.31731261 9.50233954 4.34971233 8.93714041 2 6 C1.67 5.34 1.34 4.68 1 4 C0.34 3.67 -0.32 3.34 -1 3 C-0.67 2.01 -0.34 1.02 0 0 Z " fill="#25326D" transform="translate(49,132)"/>
<path d="M0 0 C3.3 0 6.6 0 10 0 C10 0.33 10 0.66 10 1 C8.02 1.33 6.04 1.66 4 2 C4.66 3.32 5.32 4.64 6 6 C5.01 6 4.02 6 3 6 C0 2.66666667 0 2.66666667 0 0 Z " fill="#CFD0E6" transform="translate(66,135)"/>
<path d="M0 0 C0.66 0 1.32 0 2 0 C4.83022097 3.99560608 3.76210446 7.42737323 3 12 C2.34 11.67 1.68 11.34 1 11 C0.5859375 8.49609375 0.5859375 8.49609375 0.375 5.4375 C0.30023438 4.42558594 0.22546875 3.41367188 0.1484375 2.37109375 C0.09945312 1.58863281 0.05046875 0.80617188 0 0 Z " fill="#24346F" transform="translate(143,104)"/>
<path d="M0 0 C1.98 0 3.96 0 6 0 C6.66 1.98 7.32 3.96 8 6 C5.33333333 4.66666667 2.66666667 3.33333333 0 2 C0 1.34 0 0.68 0 0 Z " fill="#102653" transform="translate(126,80)"/>
<path d="M0 0 C3.63 0 7.26 0 11 0 C10.67 0.66 10.34 1.32 10 2 C7.67843403 2.40729228 5.3431213 2.74438677 3 3 C2.67 3.99 2.34 4.98 2 6 C1.34 4.02 0.68 2.04 0 0 Z " fill="#EAF2FA" transform="translate(118,66)"/>
<path d="M0 0 C0.33 0.66 0.66 1.32 1 2 C2.98 1.67 4.96 1.34 7 1 C4.6875 3.5 4.6875 3.5 2 6 C1.01 6 0.02 6 -1 6 C-0.67 4.02 -0.34 2.04 0 0 Z " fill="#162354" transform="translate(53,56)"/>
<path d="M0 0 C0.33 1.32 0.66 2.64 1 4 C0.01 4.33 -0.98 4.66 -2 5 C-2.73323796 7.01508358 -2.73323796 7.01508358 -3 9 C-3.66 7.68 -4.32 6.36 -5 5 C-3.35 3.35 -1.7 1.7 0 0 Z " fill="#2F3E6B" transform="translate(39,139)"/>
<path d="M0 0 C3.63 0 7.26 0 11 0 C11 0.33 11 0.66 11 1 C6.545 1.495 6.545 1.495 2 2 C2.33 2.66 2.66 3.32 3 4 C1.35 4.33 -0.3 4.66 -2 5 C-1.34 3.35 -0.68 1.7 0 0 Z " fill="#C4C6DB" transform="translate(104,135)"/>
<path d="M0 0 C4.29 0 8.58 0 13 0 C12.67 0.99 12.34 1.98 12 3 C11.484375 2.835 10.96875 2.67 10.4375 2.5 C6.61349155 1.71558801 2.55708573 1.22145713 -1 3 C-0.67 2.01 -0.34 1.02 0 0 Z " fill="#D9E9F8" transform="translate(121,127)"/>
<path d="M0 0 C0.33 0 0.66 0 1 0 C1 2.97 1 5.94 1 9 C-0.65 9.33 -2.3 9.66 -4 10 C-2.68 6.7 -1.36 3.4 0 0 Z " fill="#262F6D" transform="translate(163,118)"/>
<path d="M0 0 C-2.35968744 2.09749995 -3.54616994 2.96905704 -6.75 3.1875 C-7.86375 3.0946875 -7.86375 3.0946875 -9 3 C-8.67 2.01 -8.34 1.02 -8 0 C-5.04215769 -1.22393475 -3.00272755 -0.96516243 0 0 Z " fill="#192153" transform="translate(107,108)"/>
<path d="M0 0 C0.66 0.33 1.32 0.66 2 1 C2.59355614 3.64860427 2.74209269 6.29197322 3 9 C1.68 8.67 0.36 8.34 -1 8 C-1.04241723 5.66705225 -1.04092937 3.33297433 -1 1 C-0.67 0.67 -0.34 0.34 0 0 Z " fill="#122056" transform="translate(38,76)"/>
<path d="M0 0 C1.98 0.99 3.96 1.98 6 3 C5.67 3.99 5.34 4.98 5 6 C2.13275314 5.42655063 1.1385485 5.1385485 -1 3 C-0.67 2.01 -0.34 1.02 0 0 Z " fill="#EEF2FA" transform="translate(63,140)"/>
<path d="M0 0 C1.5625 1.75 1.5625 1.75 3 4 C2.6875 6.25 2.6875 6.25 2 8 C0.35 6.68 -1.3 5.36 -3 4 C-2.01 2.68 -1.02 1.36 0 0 Z " fill="#252C77" transform="translate(156,132)"/>
<path d="M0 0 C0.66 0 1.32 0 2 0 C1.01 2.97 0.02 5.94 -1 9 C-1.99 9 -2.98 9 -4 9 C-3.34 8.67 -2.68 8.34 -2 8 C-2.33 7.01 -2.66 6.02 -3 5 C-1.6875 2.3125 -1.6875 2.3125 0 0 Z " fill="#CFDEF4" transform="translate(138,104)"/>
<path d="M0 0 C0.66 0 1.32 0 2 0 C2.28875 1.134375 2.5775 2.26875 2.875 3.4375 C3.24625 4.613125 3.6175 5.78875 4 7 C4.66 7.33 5.32 7.66 6 8 C5.67 9.32 5.34 10.64 5 12 C1.66226291 8.35883227 1.02135098 4.71392758 0 0 Z " fill="#262C62" transform="translate(86,92)"/>
<path d="M0 0 C3 0.25 3 0.25 5 2.25 C1.49223216 3.85355101 -1.14354879 4.47036864 -5 4.25 C-5 0.63752957 -3.30592831 0.27549403 0 0 Z " fill="#0D1F64" transform="translate(84,149.75)"/>
<path d="M0 0 C0.66 1.32 1.32 2.64 2 4 C0.35 5.65 -1.3 7.3 -3 9 C-3.66 8.34 -4.32 7.68 -5 7 C-3.35 4.69 -1.7 2.38 0 0 Z " fill="#DBE8F3" transform="translate(138,131)"/>
<path d="M0 0 C3.3 0 6.6 0 10 0 C8 4 8 4 6 5 C5.67 4.01 5.34 3.02 5 2 C3.35 1.67 1.7 1.34 0 1 C0 0.67 0 0.34 0 0 Z " fill="#BAC5DA" transform="translate(117,135)"/>
<path d="M0 0 C0.99 0.33 1.98 0.66 3 1 C3 1.66 3 2.32 3 3 C5.97 3.33 8.94 3.66 12 4 C12 4.33 12 4.66 12 5 C6.60550707 5.27429625 3.48074195 5.36055646 -1 2 C-0.67 1.34 -0.34 0.68 0 0 Z " fill="#C5D3E9" transform="translate(116,114)"/>
<path d="M0 0 C1.32 0 2.64 0 4 0 C4.66 1.98 5.32 3.96 6 6 C3.5625 5.25 3.5625 5.25 1 4 C0.1875 1.875 0.1875 1.875 0 0 Z " fill="#26296A" transform="translate(92,104)"/>
<path d="M0 0 C-2.64 1.65 -5.28 3.3 -8 5 C-8.99 4.01 -9.98 3.02 -11 2 C-9.54494642 1.47007308 -8.08581873 0.9513211 -6.625 0.4375 C-5.81289062 0.14746094 -5.00078125 -0.14257812 -4.1640625 -0.44140625 C-2 -1 -2 -1 0 0 Z " fill="#C8D0E8" transform="translate(80,50)"/>
<path d="M0 0 C2.64 0.33 5.28 0.66 8 1 C8.33 2.32 8.66 3.64 9 5 C4.545 3.02 4.545 3.02 0 1 C0 0.67 0 0.34 0 0 Z " fill="#22325E" transform="translate(107,50)"/>
<path d="M0 0 C3.63 0 7.26 0 11 0 C11 0.33 11 0.66 11 1 C10.05125 1.103125 9.1025 1.20625 8.125 1.3125 C4.70892499 1.68539295 4.70892499 1.68539295 3 5 C2.01 3.35 1.02 1.7 0 0 Z " fill="#E0E9FC" transform="translate(46,127)"/>
<path d="M0 0 C0.99 0.33 1.98 0.66 3 1 C3 1.66 3 2.32 3 3 C5.64 3 8.28 3 11 3 C11 3.33 11 3.66 11 4 C6.71 4 2.42 4 -2 4 C-1.34 2.68 -0.68 1.36 0 0 Z " fill="#DFEFFB" transform="translate(48,69)"/>
<path d="M0 0 C0.99 0.33 1.98 0.66 3 1 C-2.625 6 -2.625 6 -6 6 C-6 5.01 -6 4.02 -6 3 C-5.195625 2.690625 -4.39125 2.38125 -3.5625 2.0625 C-1.10919595 1.23664655 -1.10919595 1.23664655 0 0 Z " fill="#233062" transform="translate(40,48)"/>
<path d="M0 0 C1.98 0 3.96 0 6 0 C5.01 0.66 4.02 1.32 3 2 C4.32 2.33 5.64 2.66 7 3 C6.67 3.66 6.34 4.32 6 5 C4.02 4.34 2.04 3.68 0 3 C0 2.01 0 1.02 0 0 Z " fill="#0F1F57" transform="translate(99,45)"/>
<path d="M0 0 C-0.33 0.99 -0.66 1.98 -1 3 C-3.64 3 -6.28 3 -9 3 C-9 2.34 -9 1.68 -9 1 C-2.25 0 -2.25 0 0 0 Z " fill="#132157" transform="translate(60,118)"/>
<path d="M0 0 C0.66 0 1.32 0 2 0 C1.34 2.97 0.68 5.94 0 9 C-0.99 8.67 -1.98 8.34 -3 8 C-1.125 2.25 -1.125 2.25 0 0 Z " fill="#233164" transform="translate(15,81)"/>
<path d="M0 0 C2.625 -0.1875 2.625 -0.1875 5 0 C4.34 1.32 3.68 2.64 3 4 C1.35 3.67 -0.3 3.34 -2 3 C-1.34 2.01 -0.68 1.02 0 0 Z " fill="#F0F7FE" transform="translate(119,82)"/>
<path d="M0 0 C3.16115776 1.36983503 3.9927092 1.9890638 6 5 C5.01 5.495 5.01 5.495 4 6 C1.875 5.0625 1.875 5.0625 0 4 C0 2.68 0 1.36 0 0 Z " fill="#D9E3F0" transform="translate(91,49)"/>
<path d="M0 0 C0.66 0.33 1.32 0.66 2 1 C0.35 2.65 -1.3 4.3 -3 6 C-3.33 5.34 -3.66 4.68 -4 4 C-4.66 3.67 -5.32 3.34 -6 3 C-4.03533587 1.93224776 -2.03144641 0.93446535 0 0 Z " fill="#DDE5F2" transform="translate(82,50)"/>
<path d="M0 0 C0.99 0.33 1.98 0.66 3 1 C1.90554162 1.86657116 0.79902219 2.71792724 -0.3125 3.5625 C-0.92738281 4.03816406 -1.54226562 4.51382813 -2.17578125 5.00390625 C-2.77777344 5.33261719 -3.37976563 5.66132813 -4 6 C-4.99 5.67 -5.98 5.34 -7 5 C-5.90554162 4.13342884 -4.79902219 3.28207276 -3.6875 2.4375 C-3.07261719 1.96183594 -2.45773438 1.48617187 -1.82421875 0.99609375 C-1.22222656 0.66738281 -0.62023437 0.33867187 0 0 Z " fill="#DDE8F4" transform="translate(128,143)"/>
<path d="M0 0 C0 0.99 0 1.98 0 3 C-0.66 3.66 -1.32 4.32 -2 5 C-4.125 4.625 -4.125 4.625 -6 4 C-3.94766315 1.7522025 -2.99332739 0.9977758 0 0 Z " fill="#141E55" transform="translate(136,115)"/>
<path d="M0 0 C0.66 0.66 1.32 1.32 2 2 C1.96712417 4.72869407 1.43602229 7.2966618 1 10 C-0.625 8.375 -0.625 8.375 -2 6 C-1.1875 2.75 -1.1875 2.75 0 0 Z " fill="#FCFEFC" transform="translate(110,94)"/>
<path d="M0 0 C1.65 0.33 3.3 0.66 5 1 C4.34 2.65 3.68 4.3 3 6 C2.34 5.67 1.68 5.34 1 5 C1 4.34 1 3.68 1 3 C0.34 2.67 -0.32 2.34 -1 2 C-0.67 1.34 -0.34 0.68 0 0 Z " fill="#081A55" transform="translate(150,48)"/>
<path d="M0 0 C1.65 0 3.3 0 5 0 C5 1.32 5 2.64 5 4 C2.03 3.505 2.03 3.505 -1 3 C-0.67 2.01 -0.34 1.02 0 0 Z " fill="#222D6D" transform="translate(89,36)"/>
<path d="M0 0 C0 0.66 0 1.32 0 2 C-6.625 5.125 -6.625 5.125 -10 4 C-3.375 0 -3.375 0 0 0 Z " fill="#D3DEF3" transform="translate(110,146)"/>
<path d="M0 0 C-0.66 1.32 -1.32 2.64 -2 4 C-3.32 3.67 -4.64 3.34 -6 3 C-6 2.34 -6 1.68 -6 1 C-3 0 -3 0 0 0 Z " fill="#CCDAE9" transform="translate(34,144)"/>
<path d="M0 0 C0.66 0 1.32 0 2 0 C2.625 2.875 2.625 2.875 3 6 C2.34 6.66 1.68 7.32 1 8 C0.26919734 6.02253397 -0.39421747 4.01927511 -1 2 C-0.67 1.34 -0.34 0.68 0 0 Z " fill="#1D2A63" transform="translate(117,94)"/>
<path d="M0 0 C1.32 0.66 2.64 1.32 4 2 C4 3.65 4 5.3 4 7 C2.35 5.35 0.7 3.7 -1 2 C-0.67 1.34 -0.34 0.68 0 0 Z " fill="#242E65" transform="translate(130,65)"/>
<path d="M0 0 C1.98 0.495 1.98 0.495 4 1 C4 1.66 4 2.32 4 3 C3.34 3 2.68 3 2 3 C1.67 3.99 1.34 4.98 1 6 C0.34 5.67 -0.32 5.34 -1 5 C-0.67 3.35 -0.34 1.7 0 0 Z " fill="#0B1F60" transform="translate(129,60)"/>
<path d="M0 0 C0.66 0.33 1.32 0.66 2 1 C0.1875 3 0.1875 3 -2 5 C-2.99 5 -3.98 5 -5 5 C-4 2 -4 2 -2.0625 0.75 C-1.381875 0.5025 -0.70125 0.255 0 0 Z " fill="#DDDEEE" transform="translate(67,53)"/>
<path d="M0 0 C2.97 0.495 2.97 0.495 6 1 C6 1.66 6 2.32 6 3 C3.69 3 1.38 3 -1 3 C-0.67 2.01 -0.34 1.02 0 0 Z " fill="#EBF7FD" transform="translate(89,39)"/>
<path d="M0 0 C2.475 0.495 2.475 0.495 5 1 C4.67 1.99 4.34 2.98 4 4 C5.98 4 7.96 4 10 4 C10 4.33 10 4.66 10 5 C7.36 5 4.72 5 2 5 C2 4.01 2 3.02 2 2 C1.34 1.34 0.68 0.68 0 0 Z " fill="#BDC8E1" transform="translate(84,38)"/>
</svg>
